<?xml version="1.0" encoding="UTF-8" standalone="no" ?>
<!DOCTYPE svg PUBLIC "-//W3C//DTD SVG 1.1//EN" "http://www.w3.org/Graphics/SVG/1.1/DTD/svg11.dtd">
<svg xmlns="http://www.w3.org/2000/svg" xmlns:xlink="http://www.w3.org/1999/xlink" version="1.1" width="1080" height="1080" viewBox="0 0 1080 1080" xml:space="preserve">
<desc>Created with Fabric.js 5.2.4</desc>
<defs>
</defs>
<rect x="0" y="0" width="100%" height="100%" fill="transparent"></rect>
<g transform="matrix(1 0 0 1 540 540)" id="1f935ef3-5802-431e-95f2-1b6f3d4a0f86"  >
<rect style="stroke: none; stroke-width: 1; stroke-dasharray: none; stroke-linecap: butt; stroke-dashoffset: 0; stroke-linejoin: miter; stroke-miterlimit: 4; fill: rgb(255,255,255); fill-rule: nonzero; opacity: 1; visibility: hidden;" vector-effect="non-scaling-stroke"  x="-540" y="-540" rx="0" ry="0" width="1080" height="1080" />
</g>
<g transform="matrix(1 0 0 1 540 540)" id="eebc2ac6-75b3-47a5-be30-bcb030189ba0"  >
</g>
<g transform="matrix(NaN NaN NaN NaN 0 0)"  >
<path style="stroke: none; stroke-width: 1; stroke-dasharray: none; stroke-linecap: butt; stroke-dashoffset: 0; stroke-linejoin: miter; stroke-miterlimit: 4; fill: rgb(0,0,0); fill-rule: evenodd; opacity: 1;"  transform=" translate(-12, -12)" d="M 13 4 L 13 3 L 15 3 L 15 4 L 16.22 4 C 16.709 4 17.166999999999998 4.2379999999999995 17.448 4.638 C 18.31 5.867 21 10 21 10 C 21 10 22.391 11.209 23 11.732 C 23.841 12.453999999999999 24 13.030999999999999 24 14 L 24 16.5 C 24 17.328 23.328 18 22.5 18 L 21 18 C 21 19.656 19.656 21 18 21 C 16.344 21 15 19.656 15 18 L 9 18 C 9 19.656 7.656 21 6 21 C 4.344 21 3 19.656 3 18 L 1 18 C 0.735 18 0.48 17.895 0.29300000000000004 17.707 C 0.10500000000000004 17.52 5.551115123125783e-17 17.265 5.551115123125783e-17 17 L 5.551115123125783e-17 5 C 5.551115123125783e-17 4.448 0.44800000000000006 4 1 4 L 13 4 z M 6.064 16.75 C 6.754 16.75 7.314 17.31 7.314 18 C 7.314 18.69 6.754 19.25 6.064 19.25 C 5.3740000000000006 19.25 4.814 18.69 4.814 18 C 4.814 17.31 5.3740000000000006 16.75 6.064 16.75 z M 18.064 16.75 C 18.754 16.75 19.314 17.31 19.314 18 C 19.314 18.69 18.754 19.25 18.064 19.25 C 17.374 19.25 16.814 18.69 16.814 18 C 16.814 17.31 17.374 16.75 18.064 16.75 z M 8 7 L 6 7 L 6 9 L 4 9 L 4 11 L 6 11 L 6 13 L 8 13 L 8 11 L 10 11 L 10 9 L 8 9 L 8 7 z M 16.057000000000002 6 L 13.000000000000002 6 L 13.000000000000002 10 L 18.674000000000003 10 L 16.057000000000002 6 z" stroke-linecap="round" />
</g>
<g transform="matrix(NaN NaN NaN NaN 0 0)"  >
<path style="stroke: none; stroke-width: 1; stroke-dasharray: none; stroke-linecap: butt; stroke-dashoffset: 0; stroke-linejoin: miter; stroke-miterlimit: 4; fill: rgb(0,0,0); fill-rule: evenodd; opacity: 1;"  transform=" translate(-12, -12)" d="M 13 4 L 13 3 L 15 3 L 15 4 L 16.22 4 C 16.709 4 17.166999999999998 4.2379999999999995 17.448 4.638 C 18.31 5.867 21 10 21 10 C 21 10 22.391 11.209 23 11.732 C 23.841 12.453999999999999 24 13.030999999999999 24 14 L 24 16.5 C 24 17.328 23.328 18 22.5 18 L 21 18 C 21 19.656 19.656 21 18 21 C 16.344 21 15 19.656 15 18 L 9 18 C 9 19.656 7.656 21 6 21 C 4.344 21 3 19.656 3 18 L 1 18 C 0.735 18 0.48 17.895 0.29300000000000004 17.707 C 0.10500000000000004 17.52 5.551115123125783e-17 17.265 5.551115123125783e-17 17 L 5.551115123125783e-17 5 C 5.551115123125783e-17 4.448 0.44800000000000006 4 1 4 L 13 4 z M 6.064 16.75 C 6.754 16.75 7.314 17.31 7.314 18 C 7.314 18.69 6.754 19.25 6.064 19.25 C 5.3740000000000006 19.25 4.814 18.69 4.814 18 C 4.814 17.31 5.3740000000000006 16.75 6.064 16.75 z M 18.064 16.75 C 18.754 16.75 19.314 17.31 19.314 18 C 19.314 18.69 18.754 19.25 18.064 19.25 C 17.374 19.25 16.814 18.69 16.814 18 C 16.814 17.31 17.374 16.75 18.064 16.75 z M 8 7 L 6 7 L 6 9 L 4 9 L 4 11 L 6 11 L 6 13 L 8 13 L 8 11 L 10 11 L 10 9 L 8 9 L 8 7 z M 16.057000000000002 6 L 13.000000000000002 6 L 13.000000000000002 10 L 18.674000000000003 10 L 16.057000000000002 6 z" stroke-linecap="round" />
</g>
<g transform="matrix(NaN NaN NaN NaN 0 0)"  >
<g style=""   >
</g>
</g>
<g transform="matrix(43.29 0 0 43.29 532.31 534.23)" id="7eb5ff86-3e10-4343-8b27-80ca9e728494"  >
<path style="stroke: rgb(0,0,0); stroke-width: 0; stroke-dasharray: none; stroke-linecap: butt; stroke-dashoffset: 0; stroke-linejoin: miter; stroke-miterlimit: 4; fill: rgb(211,57,57); fill-rule: nonzero; opacity: 1;" vector-effect="non-scaling-stroke"  transform=" translate(-12, -12)" d="M 13 4 L 13 3 L 15 3 L 15 4 L 16.22 4 C 16.709 4 17.166999999999998 4.2379999999999995 17.448 4.638 C 18.31 5.867 21 10 21 10 C 21 10 22.391 11.209 23 11.732 C 23.841 12.453999999999999 24 13.030999999999999 24 14 L 24 16.5 C 24 17.328 23.328 18 22.5 18 L 21 18 C 21 19.656 19.656 21 18 21 C 16.344 21 15 19.656 15 18 L 9 18 C 9 19.656 7.656 21 6 21 C 4.344 21 3 19.656 3 18 L 1 18 C 0.735 18 0.48 17.895 0.29300000000000004 17.707 C 0.10500000000000004 17.52 5.551115123125783e-17 17.265 5.551115123125783e-17 17 L 5.551115123125783e-17 5 C 5.551115123125783e-17 4.448 0.44800000000000006 4 1 4 L 13 4 z M 6.064 16.75 C 6.754 16.75 7.314 17.31 7.314 18 C 7.314 18.69 6.754 19.25 6.064 19.25 C 5.3740000000000006 19.25 4.814 18.69 4.814 18 C 4.814 17.31 5.3740000000000006 16.75 6.064 16.75 z M 18.064 16.75 C 18.754 16.75 19.314 17.31 19.314 18 C 19.314 18.69 18.754 19.25 18.064 19.25 C 17.374 19.25 16.814 18.69 16.814 18 C 16.814 17.31 17.374 16.75 18.064 16.75 z M 8 7 L 6 7 L 6 9 L 4 9 L 4 11 L 6 11 L 6 13 L 8 13 L 8 11 L 10 11 L 10 9 L 8 9 L 8 7 z M 16.057000000000002 6 L 13.000000000000002 6 L 13.000000000000002 10 L 18.674000000000003 10 L 16.057000000000002 6 z" stroke-linecap="round" />
</g>
</svg>